HIERARCHY
ROOT Hips
{
	OFFSET 0.000000 0.000000 0.000000
	CHANNELS 6 Xposition Yposition Zposition Zrotation Yrotation Xrotation 
	JOINT LowerBack
	{
		OFFSET 0.000000 0.000000 0.000000
		CHANNELS 3 Zrotation Yrotation Xrotation
		JOINT Spine
		{
			OFFSET 0.028270 2.035590 -0.193380
			CHANNELS 3 Zrotation Yrotation Xrotation
			JOINT Spine1
			{
				OFFSET 0.056720 2.048850 -0.042750
				CHANNELS 3 Zrotation Yrotation Xrotation
				JOINT Neck
				{
					OFFSET 0.000000 0.000000 0.000000
					CHANNELS 3 Zrotation Yrotation Xrotation
					JOINT Neck1
					{
						OFFSET -0.054170 1.746240 0.172020
						CHANNELS 3 Zrotation Yrotation Xrotation
						JOINT Head
						{
							OFFSET 0.104070 1.761360 -0.123970
							CHANNELS 3 Zrotation Yrotation Xrotation
							End Site
							{
								OFFSET 0.000000 0.000000 0.000000
							}
						}
					}
				}
				JOINT LeftShoulder
				{
					OFFSET 0.000000 0.000000 0.000000
					CHANNELS 3 Zrotation Yrotation Xrotation
					JOINT LeftArm
					{
						OFFSET 3.362410 1.200890 -0.311210
						CHANNELS 3 Zrotation Yrotation Xrotation
						JOINT LeftForeArm
						{
							OFFSET 4.983000 -0.000000 -0.000000
							CHANNELS 3 Zrotation Yrotation Xrotation
							JOINT LeftHand
							{
								OFFSET 3.483560 -0.000000 -0.000000
								CHANNELS 3 Zrotation Yrotation Xrotation
								JOINT LeftFingerBase
								{
									OFFSET 0.000000 0.000000 0.000000
									CHANNELS 3 Zrotation Yrotation Xrotation
									JOINT LeftHandIndex1
									{
										OFFSET 0.715260 -0.000000 -0.000000
										CHANNELS 3 Zrotation Yrotation Xrotation
										End Site
										{
											OFFSET 0.000000 0.000000 0.000000
										}
									}
								}
								JOINT LThumb
								{
									OFFSET 0.000000 0.000000 0.000000
									CHANNELS 3 Zrotation Yrotation Xrotation
									End Site
									{
										OFFSET 0.000000 0.000000 0.000000
									}
								}
							}
						}
					}
				}
				JOINT RightShoulder
				{
					OFFSET 0.000000 0.000000 0.000000
					CHANNELS 3 Zrotation Yrotation Xrotation
					JOINT RightArm
					{
						OFFSET -3.136600 1.374050 -0.404650
						CHANNELS 3 Zrotation Yrotation Xrotation
						JOINT RightForeArm
						{
							OFFSET -5.241900 -0.000000 -0.000000
							CHANNELS 3 Zrotation Yrotation Xrotation
							JOINT RightHand
							{
								OFFSET -3.444170 -0.000000 -0.000000
								CHANNELS 3 Zrotation Yrotation Xrotation
								JOINT RightFingerBase
								{
									OFFSET 0.000000 0.000000 0.000000
									CHANNELS 3 Zrotation Yrotation Xrotation
									JOINT RightHandIndex1
									{
										OFFSET -0.622530 -0.000000 -0.000000
										CHANNELS 3 Zrotation Yrotation Xrotation
										End Site
										{
											OFFSET 0.000000 0.000000 0.000000
										}
									}
								}
								JOINT RThumb
								{
									OFFSET 0.000000 0.000000 0.000000
									CHANNELS 3 Zrotation Yrotation Xrotation
									End Site
									{
										OFFSET 0.000000 0.000000 0.000000
									}
								}
							}
						}
					}
				}
			}
		}
	}
}
}
MOTION
Frames: 18
Frame Time: 0.008333
-10.236772 17.058971 -1.748519 24.316821 85.948893 29.608584 -3.861544 -0.142466 -2.415550 -1.270083 0.028756 -2.843256 -5.134465 -0.049062 2.697523 10.033496 -11.987020 -10.773969 -1.843244 -0.103585 -0.818148 0.000000 0.000000 0.000000 -5.366962 25.453509 1.370134 -78.888319 22.902220 7.139299 -3.547062 -27.193731 -0.017479 -7.263542 5.848949 -0.376975 -0.033577 -0.107434 -0.000000 0.000000 0.000000 0.000000 0.000000 0.000000 0.000000 11.731168 -6.343992 0.517573 48.884460 11.889931 8.720789 2.457927 43.312281 0.015022 3.296156 5.373358 0.156128 0.065399 -0.130166 0.000000 0.000000 0.000000 0.000000 0.000000 0.000000 0.000000 
-10.064172 17.055629 -1.741391 28.459718 86.114987 33.703334 -4.117617 -0.333225 -2.277224 -1.321064 -0.140459 -2.827018 -5.161282 -0.216999 2.657875 10.124381 -12.103897 -10.787004 -1.871211 -0.105504 -0.822638 0.000000 0.000000 0.000000 -5.021489 24.960707 1.395294 -78.555492 22.321688 7.322222 -3.567999 -27.206232 -0.017111 -7.148728 5.753733 -0.364651 -0.036727 -0.104437 -0.000000 0.000000 0.000000 0.000000 0.000000 0.000000 0.000000 11.901666 -6.533177 0.494952 49.673083 11.417469 8.540920 2.482647 43.259473 0.015121 3.269650 5.392829 0.155241 0.067000 -0.129492 0.000000 0.000000 0.000000 0.000000 0.000000 0.000000 0.000000 
-9.894681 17.051982 -1.734110 32.414001 86.281293 37.620398 -4.317693 -0.516917 -2.121886 -1.362053 -0.306389 -2.806613 -5.189528 -0.381001 2.620351 10.208860 -12.247603 -10.808856 -1.898513 -0.107205 -0.829682 0.000000 0.000000 0.000000 -4.663626 24.452946 1.418230 -78.181872 21.674568 7.526508 -3.587502 -27.240944 -0.016674 -7.008069 5.650532 -0.350724 -0.040128 -0.101125 -0.000000 0.000000 0.000000 0.000000 0.000000 0.000000 0.000000 12.068217 -6.750467 0.475300 50.493564 10.945150 8.348700 2.508595 43.163610 0.015197 3.199037 5.422432 0.152555 0.069095 -0.128987 0.000000 0.000000 0.000000 0.000000 0.000000 0.000000 0.000000 
-9.728115 17.048373 -1.727010 35.992020 86.422180 41.173475 -4.464023 -0.684067 -1.957876 -1.394093 -0.459690 -2.786539 -5.221377 -0.532070 2.575052 10.280199 -12.370879 -10.826265 -1.927609 -0.109102 -0.835590 0.000000 0.000000 0.000000 -4.303027 23.917774 1.439876 -77.762600 20.992303 7.740696 -3.604127 -27.321995 -0.016145 -6.833525 5.527425 -0.334193 -0.043738 -0.097522 -0.000000 0.000000 0.000000 0.000000 0.000000 0.000000 0.000000 12.216339 -6.940200 0.458752 51.362794 10.395196 8.075416 2.535608 43.056954 0.015259 3.120957 5.444312 0.149270 0.071221 -0.128605 0.000000 0.000000 0.000000 0.000000 0.000000 0.000000 0.000000 
-9.564054 17.045137 -1.720640 39.028175 86.536486 44.197044 -4.555642 -0.835437 -1.790022 -1.416252 -0.601171 -2.765349 -5.255225 -0.670968 2.531354 10.344561 -12.502553 -10.847625 -1.956704 -0.110907 -0.842621 0.000000 0.000000 0.000000 -3.953414 23.391007 1.456653 -77.292292 20.257212 7.957926 -3.617899 -27.446910 -0.015532 -6.626516 5.384027 -0.315258 -0.047576 -0.093613 -0.000000 0.000000 0.000000 0.000000 0.000000 0.000000 0.000000 12.359435 -7.135138 0.445391 52.249832 9.832520 7.790807 2.564145 42.906649 0.015298 3.017111 5.473466 0.144885 0.073581 -0.128251 0.000000 0.000000 0.000000 0.000000 0.000000 0.000000 0.000000 
-9.402157 17.042747 -1.715248 41.387501 86.616061 46.557372 -4.598930 -0.969773 -1.625701 -1.429529 -0.729239 -2.744306 -5.291027 -0.796243 2.490202 10.403443 -12.640109 -10.871618 -1.985814 -0.112644 -0.850368 0.000000 0.000000 0.000000 -3.624677 22.882886 1.467174 -76.765554 19.476194 8.171572 -3.628370 -27.622676 -0.014827 -6.382639 5.212624 -0.293620 -0.051641 -0.089414 -0.000000 0.000000 0.000000 0.000000 0.000000 0.000000 0.000000 12.499637 -7.332764 0.435024 53.149054 9.262462 7.499951 2.594918 42.703304 0.015320 2.894030 5.508285 0.139600 0.076107 -0.127832 0.000000 0.000000 0.000000 0.000000 0.000000 0.000000 0.000000 
-9.241956 17.041637 -1.710958 42.973826 86.659601 48.158887 -4.598220 -1.088165 -1.471590 -1.434457 -0.844766 -2.724695 -5.328838 -0.908902 2.451673 10.457021 -12.772972 -10.894716 -2.015476 -0.114418 -0.857819 0.000000 0.000000 0.000000 -3.323693 22.400499 1.471397 -76.180476 18.658719 8.366211 -3.635650 -27.853389 -0.014028 -6.100313 5.009002 -0.269276 -0.055949 -0.084936 -0.000000 0.000000 0.000000 0.000000 0.000000 0.000000 0.000000 12.636936 -7.523054 0.426532 54.059646 8.679317 7.194836 2.628521 42.440284 0.015326 2.763677 5.545578 0.133914 0.078660 -0.127242 0.000000 0.000000 0.000000 0.000000 0.000000 0.000000 0.000000 
-9.083039 17.042229 -1.707806 43.750485 86.668948 48.964849 -4.558121 -1.193310 -1.332559 -1.431467 -0.950129 -2.706026 -5.367922 -1.011300 2.421056 10.509557 -12.916487 -10.920379 -2.044706 -0.116097 -0.865878 0.000000 0.000000 0.000000 -3.056785 21.960548 1.467623 -75.534080 17.801632 8.535166 -3.640018 -28.135991 -0.013142 -5.779154 4.773038 -0.242628 -0.060520 -0.080207 -0.000000 0.000000 0.000000 0.000000 0.000000 0.000000 0.000000 12.779049 -7.725061 0.419146 54.970342 8.118564 6.902994 2.666128 42.092669 0.015315 2.622630 5.587656 0.127726 0.081318 -0.126366 0.000000 0.000000 0.000000 0.000000 0.000000 0.000000 0.000000 
-8.925149 17.044885 -1.705543 43.719044 86.641099 48.972948 -4.483231 -1.285016 -1.213200 -1.421673 -1.044933 -2.692128 -5.409661 -1.103338 2.387017 10.551048 -13.011397 -10.930582 -2.076577 -0.118223 -0.869586 0.000000 0.000000 0.000000 -2.817033 21.537046 1.460881 -74.835496 16.944352 8.643086 -3.642244 -28.474989 -0.012174 -5.419687 4.501797 -0.214177 -0.065380 -0.075259 -0.000000 0.000000 0.000000 0.000000 0.000000 0.000000 0.000000 12.905954 -7.874941 0.410887 55.913544 7.491245 6.525205 2.707154 41.684543 0.015300 2.509188 5.618342 0.122536 0.083581 -0.125183 0.000000 0.000000 0.000000 0.000000 0.000000 0.000000 0.000000 
-8.767839 17.049845 -1.704017 42.994647 86.583165 48.297177 -4.377687 -1.368249 -1.113328 -1.405309 -1.133730 -2.679163 -5.452090 -1.189231 2.363697 10.592726 -13.117863 -10.941069 -2.107491 -0.120254 -0.873216 0.000000 0.000000 0.000000 -2.609878 21.163023 1.446579 -74.079146 16.060876 8.702699 -3.642700 -28.857013 -0.011144 -5.025215 4.203134 -0.184922 -0.070535 -0.070138 -0.000000 0.000000 0.000000 0.000000 0.000000 0.000000 0.000000 13.038530 -8.041618 0.401634 56.860552 6.899629 6.146162 2.753450 41.166789 0.015266 2.394485 5.646649 0.117244 0.085880 -0.123579 0.000000 0.000000 0.000000 0.000000 0.000000 0.000000 0.000000 
-8.610838 17.057274 -1.702875 41.727465 86.498903 47.083478 -4.245170 -1.445278 -1.032980 -1.383252 -1.218550 -2.667800 -5.495612 -1.271021 2.348347 10.631692 -13.219422 -10.946273 -2.138248 -0.122350 -0.875230 0.000000 0.000000 0.000000 -2.428932 20.829996 1.426936 -73.269786 15.167313 8.701959 -3.641926 -29.279416 -0.010069 -4.599737 3.883600 -0.155864 -0.075987 -0.064893 -0.000000 0.000000 0.000000 0.000000 0.000000 0.000000 0.000000 13.171149 -8.208669 0.390131 57.823182 6.317571 5.724685 2.804867 40.544159 0.015214 2.292650 5.664096 0.112348 0.088043 -0.121535 0.000000 0.000000 0.000000 0.000000 0.000000 0.000000 0.000000 
-8.454041 17.067120 -1.701730 40.125284 86.394723 45.532807 -4.090313 -1.518613 -0.968683 -1.356575 -1.301536 -2.658489 -5.540114 -1.350864 2.336285 10.662973 -13.298831 -10.939335 -2.169437 -0.124664 -0.873754 0.000000 0.000000 0.000000 -2.262797 20.517761 1.404940 -72.418239 14.285905 8.619034 -3.640714 -29.737513 -0.008973 -4.150430 3.550357 -0.128103 -0.081714 -0.059560 -0.000000 0.000000 0.000000 0.000000 0.000000 0.000000 0.000000 13.293870 -8.359130 0.375917 58.817309 5.714993 5.212551 2.860670 39.823661 0.015140 2.211850 5.664630 0.108049 0.089942 -0.119104 0.000000 0.000000 0.000000 0.000000 0.000000 0.000000 0.000000 
-8.297267 17.079243 -1.700182 38.414662 86.283193 43.867420 -3.916603 -1.592485 -0.916408 -1.325983 -1.386603 -2.649636 -5.585039 -1.432515 2.330280 10.688712 -13.371306 -10.924077 -2.200179 -0.127067 -0.869839 0.000000 0.000000 0.000000 -2.105595 20.227049 1.380933 -71.526826 13.416561 8.459063 -3.639215 -30.224765 -0.007877 -3.684355 3.214473 -0.102441 -0.087679 -0.054169 -0.000000 0.000000 0.000000 0.000000 0.000000 0.000000 0.000000 13.411211 -8.511502 0.358830 59.838068 5.109087 4.611630 2.920529 39.002292 0.015034 2.145872 5.646337 0.104246 0.091654 -0.116299 -0.000000 0.000000 0.000000 0.000000 0.000000 0.000000 0.000000 
-8.140415 17.093338 -1.697927 36.797338 86.179241 42.284924 -3.727833 -1.670938 -0.871607 -1.292247 -1.477456 -2.640259 -5.629893 -1.519601 2.330356 10.708740 -13.442479 -10.901805 -2.230104 -0.129507 -0.863859 0.000000 0.000000 0.000000 -1.949338 19.950069 1.356422 -70.600374 12.564643 8.223357 -3.637557 -30.735659 -0.006806 -3.209659 2.886136 -0.079477 -0.093831 -0.048732 -0.000000 0.000000 0.000000 0.000000 0.000000 0.000000 0.000000 13.523364 -8.673531 0.338992 60.884329 4.499148 3.910479 2.983382 38.088689 0.014884 2.090931 5.606961 0.100739 0.093200 -0.113178 -0.000000 0.000000 0.000000 0.000000 0.000000 0.000000 0.000000 
-7.983479 17.108998 -1.694646 35.443959 86.098372 40.951521 -3.528346 -1.757487 -0.829606 -1.256275 -1.577254 -2.630286 -5.674387 -1.615309 2.332912 10.720793 -13.505852 -10.870022 -2.259664 -0.132062 -0.855144 0.000000 0.000000 0.000000 -1.783449 19.666965 1.334046 -69.648789 11.747701 7.900612 -3.635768 -31.269021 -0.005786 -2.736957 2.574553 -0.059912 -0.100087 -0.043241 -0.000000 0.000000 0.000000 0.000000 0.000000 0.000000 0.000000 13.626686 -8.839375 0.317203 61.959418 3.865678 3.081317 3.047656 37.101170 0.014691 2.046679 5.547286 0.097329 0.094530 -0.109857 -0.000000 0.000000 0.000000 0.000000 0.000000 0.000000 0.000000 
-7.826323 17.125758 -1.690153 34.468221 86.057795 39.982984 -3.320775 -1.856028 -0.788621 -1.218455 -1.689677 -2.617665 -5.718004 -1.723147 2.344400 10.731555 -13.591609 -10.839948 -2.287493 -0.134448 -0.846775 0.000000 0.000000 0.000000 -1.608378 19.394167 1.312980 -68.665418 10.944454 7.527930 -3.633139 -31.818136 -0.004837 -2.269705 2.287938 -0.043448 -0.106400 -0.037679 -0.000000 0.000000 0.000000 0.000000 0.000000 0.000000 0.000000 13.734790 -9.042109 0.293497 63.039782 3.240108 2.165600 3.112126 36.052360 0.014441 1.999567 5.467002 0.093514 0.095794 -0.106345 -0.000000 0.000000 0.000000 0.000000 0.000000 0.000000 0.000000 
-7.668978 17.143061 -1.684326 33.952144 86.070066 39.460253 -3.108259 -1.968469 -0.746662 -1.179479 -1.816425 -2.603174 -5.760882 -1.844926 2.360132 10.739639 -13.689371 -10.808881 -2.314559 -0.136792 -0.838013 0.000000 0.000000 0.000000 -1.416884 19.111637 1.295778 -67.658487 10.173034 7.095724 -3.629316 -32.385877 -0.003979 -1.817703 2.031819 -0.030184 -0.112672 -0.032019 -0.000000 0.000000 0.000000 0.000000 0.000000 0.000000 0.000000 13.845666 -9.270161 0.269202 64.123403 2.595937 1.147823 3.174875 34.972562 0.014138 1.952011 5.368698 0.089497 0.096909 -0.102754 -0.000000 0.000000 0.000000 0.000000 0.000000 0.000000 0.000000 
-7.511350 17.160409 -1.677044 33.956462 86.144837 39.448592 -2.892553 -2.096754 -0.703587 -1.139472 -1.959304 -2.584995 -5.802307 -1.982298 2.387098 10.752498 -13.831564 -10.789101 -2.339083 -0.138763 -0.832216 0.000000 0.000000 0.000000 -1.213234 18.840023 1.280986 -66.621889 9.406546 6.639461 -3.623674 -32.964746 -0.003229 -1.382615 1.809036 -0.019622 -0.118863 -0.026220 -0.000000 0.000000 0.000000 0.000000 0.000000 0.000000 0.000000 13.972441 -9.557980 0.244218 65.183886 1.969444 0.098744 3.234797 33.872986 0.013785 1.886490 5.259660 0.084477 0.098057 -0.099098 -0.000000 0.000000 0.000000 0.000000 0.000000 0.000000 0.000000 
